<?xml version="1.0" encoding="utf-8" standalone="no"?>
<!DOCTYPE svg PUBLIC "-//W3C//DTD SVG 1.1//EN"
  "http://www.w3.org/Graphics/SVG/1.1/DTD/svg11.dtd">
<svg xmlns:xlink="http://www.w3.org/1999/xlink" width="432pt" height="288pt" viewBox="0 0 432 288" xmlns="http://www.w3.org/2000/svg" version="1.1">
 <metadata>
  <rdf:RDF xmlns:dc="http://purl.org/dc/elements/1.1/" xmlns:cc="http://creativecommons.org/ns#" xmlns:rdf="http://www.w3.org/1999/02/22-rdf-syntax-ns#">
   <cc:Work>
    <dc:type rdf:resource="http://purl.org/dc/dcmitype/StillImage"/>
    <dc:date>2023-06-14T19:35:51.768892</dc:date>
    <dc:format>image/svg+xml</dc:format>
    <dc:creator>
     <cc:Agent>
      <dc:title>Matplotlib v3.7.1, https://matplotlib.org/</dc:title>
     </cc:Agent>
    </dc:creator>
   </cc:Work>
  </rdf:RDF>
 </metadata>
 <defs>
  <style type="text/css">*{stroke-linejoin: round; stroke-linecap: butt}</style>
 </defs>
 <g id="figure_1">
  <g id="patch_1">
   <path d="M 0 288 
L 432 288 
L 432 0 
L 0 0 
z
"/>
  </g>
  <g id="axes_1">
   <g id="patch_2">
    <path d="M 56.337116 258.121354 
L 419.26224 258.121354 
L 419.26224 5.198419 
L 56.337116 5.198419 
z
"/>
   </g>
   <g id="line2d_1">
    <path d="M 66.608582 250.963158 
L 92.37541 250.527282 
L 107.448037 249.964026 
L 118.142237 249.298745 
L 126.437303 248.546385 
L 133.214865 247.717259 
L 138.945212 246.819118 
L 143.909065 245.858118 
L 148.287493 244.839343 
L 152.20413 243.767107 
L 155.74716 242.645158 
L 158.981692 241.476805 
L 161.957174 240.265009 
L 164.71204 239.012452 
L 169.675892 236.394671 
L 174.05432 233.640937 
L 177.970958 230.766436 
L 181.513987 227.784623 
L 184.74852 224.707585 
L 187.724001 221.5463 
L 190.478867 218.310824 
L 193.043586 215.010427 
L 195.44272 211.653699 
L 198.773933 206.530319 
L 201.831025 201.322822 
L 204.6557 196.053648 
L 207.280815 190.743188 
L 210.515347 183.630198 
L 213.490829 176.516129 
L 216.903653 167.67473 
L 220.029331 158.944837 
L 223.463187 148.685954 
L 227.105479 137.104762 
L 231.318322 122.959173 
L 237.426071 101.547458 
L 244.885738 75.46262 
L 248.679283 62.99216 
L 251.867551 53.279573 
L 254.567817 45.758475 
L 257.08515 39.422852 
L 259.234516 34.57677 
L 261.26637 30.496078 
L 263.192898 27.084005 
L 265.024484 24.250178 
L 266.940179 21.702274 
L 268.761971 19.655293 
L 270.498637 18.022652 
L 272.305 16.626576 
L 274.167655 15.475537 
L 276.074415 14.561158 
L 278.140151 13.823645 
L 280.452843 13.248089 
L 283.072593 12.834571 
L 286.334611 12.556015 
L 290.969603 12.403027 
L 300.900087 12.357303 
L 408.990775 12.356616 
L 408.990775 12.356616 
" clip-path="url(#p3cba52af39)" style="fill: none; stroke: #1b9e77; stroke-width: 6"/>
   </g>
   <g id="matplotlib.axis_1">
    <g id="xtick_1">
     <g id="line2d_2">
      <defs>
       <path id="mca4c8edb58" d="M 0 0 
L 0 -3.75 
" style="stroke: #ffffff; stroke-width: 0.75"/>
      </defs>
      <g>
       <use xlink:href="#mca4c8edb58" x="66.608582" y="258.121354" style="fill: #ffffff; stroke: #ffffff; stroke-width: 0.75"/>
      </g>
     </g>
     <g id="line2d_3">
      <defs>
       <path id="m93ba148c6b" d="M 0 0 
L 0 3.75 
" style="stroke: #ffffff; stroke-width: 0.75"/>
      </defs>
      <g>
       <use xlink:href="#m93ba148c6b" x="66.608582" y="5.198419" style="fill: #ffffff; stroke: #ffffff; stroke-width: 0.75"/>
      </g>
     </g>
     <g id="text_1">
      <!-- $10^{-2}$ -->
      <g style="fill: #ffffff" transform="translate(40.171082 278.717839) scale(0.225 -0.225)">
       <defs>
        <path id="DejaVuSans-31" d="M 794 531 
L 1825 531 
L 1825 4091 
L 703 3866 
L 703 4441 
L 1819 4666 
L 2450 4666 
L 2450 531 
L 3481 531 
L 3481 0 
L 794 0 
L 794 531 
z
" transform="scale(0.015625)"/>
        <path id="DejaVuSans-30" d="M 2034 4250 
Q 1547 4250 1301 3770 
Q 1056 3291 1056 2328 
Q 1056 1369 1301 889 
Q 1547 409 2034 409 
Q 2525 409 2770 889 
Q 3016 1369 3016 2328 
Q 3016 3291 2770 3770 
Q 2525 4250 2034 4250 
z
M 2034 4750 
Q 2819 4750 3233 4129 
Q 3647 3509 3647 2328 
Q 3647 1150 3233 529 
Q 2819 -91 2034 -91 
Q 1250 -91 836 529 
Q 422 1150 422 2328 
Q 422 3509 836 4129 
Q 1250 4750 2034 4750 
z
" transform="scale(0.015625)"/>
        <path id="DejaVuSans-2212" d="M 678 2272 
L 4684 2272 
L 4684 1741 
L 678 1741 
L 678 2272 
z
" transform="scale(0.015625)"/>
        <path id="DejaVuSans-32" d="M 1228 531 
L 3431 531 
L 3431 0 
L 469 0 
L 469 531 
Q 828 903 1448 1529 
Q 2069 2156 2228 2338 
Q 2531 2678 2651 2914 
Q 2772 3150 2772 3378 
Q 2772 3750 2511 3984 
Q 2250 4219 1831 4219 
Q 1534 4219 1204 4116 
Q 875 4013 500 3803 
L 500 4441 
Q 881 4594 1212 4672 
Q 1544 4750 1819 4750 
Q 2544 4750 2975 4387 
Q 3406 4025 3406 3419 
Q 3406 3131 3298 2873 
Q 3191 2616 2906 2266 
Q 2828 2175 2409 1742 
Q 1991 1309 1228 531 
z
" transform="scale(0.015625)"/>
       </defs>
       <use xlink:href="#DejaVuSans-31" transform="translate(0 0.765625)"/>
       <use xlink:href="#DejaVuSans-30" transform="translate(63.623047 0.765625)"/>
       <use xlink:href="#DejaVuSans-2212" transform="translate(128.203125 39.046875) scale(0.7)"/>
       <use xlink:href="#DejaVuSans-32" transform="translate(186.855469 39.046875) scale(0.7)"/>
      </g>
     </g>
    </g>
    <g id="xtick_2">
     <g id="line2d_4">
      <g>
       <use xlink:href="#mca4c8edb58" x="152.20413" y="258.121354" style="fill: #ffffff; stroke: #ffffff; stroke-width: 0.75"/>
      </g>
     </g>
     <g id="line2d_5">
      <g>
       <use xlink:href="#m93ba148c6b" x="152.20413" y="5.198419" style="fill: #ffffff; stroke: #ffffff; stroke-width: 0.75"/>
      </g>
     </g>
     <g id="text_2">
      <!-- $10^{-1}$ -->
      <g style="fill: #ffffff" transform="translate(125.76663 278.717839) scale(0.225 -0.225)">
       <use xlink:href="#DejaVuSans-31" transform="translate(0 0.684375)"/>
       <use xlink:href="#DejaVuSans-30" transform="translate(63.623047 0.684375)"/>
       <use xlink:href="#DejaVuSans-2212" transform="translate(128.203125 38.965625) scale(0.7)"/>
       <use xlink:href="#DejaVuSans-31" transform="translate(186.855469 38.965625) scale(0.7)"/>
      </g>
     </g>
    </g>
    <g id="xtick_3">
     <g id="line2d_6">
      <g>
       <use xlink:href="#mca4c8edb58" x="237.799678" y="258.121354" style="fill: #ffffff; stroke: #ffffff; stroke-width: 0.75"/>
      </g>
     </g>
     <g id="line2d_7">
      <g>
       <use xlink:href="#m93ba148c6b" x="237.799678" y="5.198419" style="fill: #ffffff; stroke: #ffffff; stroke-width: 0.75"/>
      </g>
     </g>
     <g id="text_3">
      <!-- $10^{0}$ -->
      <g style="fill: #ffffff" transform="translate(217.999678 278.717839) scale(0.225 -0.225)">
       <use xlink:href="#DejaVuSans-31" transform="translate(0 0.765625)"/>
       <use xlink:href="#DejaVuSans-30" transform="translate(63.623047 0.765625)"/>
       <use xlink:href="#DejaVuSans-30" transform="translate(128.203125 39.046875) scale(0.7)"/>
      </g>
     </g>
    </g>
    <g id="xtick_4">
     <g id="line2d_8">
      <g>
       <use xlink:href="#mca4c8edb58" x="323.395227" y="258.121354" style="fill: #ffffff; stroke: #ffffff; stroke-width: 0.75"/>
      </g>
     </g>
     <g id="line2d_9">
      <g>
       <use xlink:href="#m93ba148c6b" x="323.395227" y="5.198419" style="fill: #ffffff; stroke: #ffffff; stroke-width: 0.75"/>
      </g>
     </g>
     <g id="text_4">
      <!-- $10^{1}$ -->
      <g style="fill: #ffffff" transform="translate(303.595227 278.717839) scale(0.225 -0.225)">
       <use xlink:href="#DejaVuSans-31" transform="translate(0 0.684375)"/>
       <use xlink:href="#DejaVuSans-30" transform="translate(63.623047 0.684375)"/>
       <use xlink:href="#DejaVuSans-31" transform="translate(128.203125 38.965625) scale(0.7)"/>
      </g>
     </g>
    </g>
    <g id="xtick_5">
     <g id="line2d_10">
      <g>
       <use xlink:href="#mca4c8edb58" x="408.990775" y="258.121354" style="fill: #ffffff; stroke: #ffffff; stroke-width: 0.75"/>
      </g>
     </g>
     <g id="line2d_11">
      <g>
       <use xlink:href="#m93ba148c6b" x="408.990775" y="5.198419" style="fill: #ffffff; stroke: #ffffff; stroke-width: 0.75"/>
      </g>
     </g>
     <g id="text_5">
      <!-- $10^{2}$ -->
      <g style="fill: #ffffff" transform="translate(389.190775 278.717839) scale(0.225 -0.225)">
       <use xlink:href="#DejaVuSans-31" transform="translate(0 0.765625)"/>
       <use xlink:href="#DejaVuSans-30" transform="translate(63.623047 0.765625)"/>
       <use xlink:href="#DejaVuSans-32" transform="translate(128.203125 39.046875) scale(0.7)"/>
      </g>
     </g>
    </g>
   </g>
   <g id="matplotlib.axis_2">
    <g id="ytick_1">
     <g id="line2d_12">
      <defs>
       <path id="m629af24e73" d="M 0 0 
L 3.75 0 
" style="stroke: #ffffff; stroke-width: 0.75"/>
      </defs>
      <g>
       <use xlink:href="#m629af24e73" x="56.337116" y="251.201884" style="fill: #ffffff; stroke: #ffffff; stroke-width: 0.75"/>
      </g>
     </g>
     <g id="line2d_13">
      <defs>
       <path id="m7147d22c9d" d="M 0 0 
L -3.75 0 
" style="stroke: #ffffff; stroke-width: 0.75"/>
      </defs>
      <g>
       <use xlink:href="#m7147d22c9d" x="419.26224" y="251.201884" style="fill: #ffffff; stroke: #ffffff; stroke-width: 0.75"/>
      </g>
     </g>
     <g id="text_6">
      <!-- $0.00$ -->
      <g style="fill: #ffffff" transform="translate(2.662116 259.750126) scale(0.225 -0.225)">
       <defs>
        <path id="DejaVuSans-2e" d="M 684 794 
L 1344 794 
L 1344 0 
L 684 0 
L 684 794 
z
" transform="scale(0.015625)"/>
       </defs>
       <use xlink:href="#DejaVuSans-30" transform="translate(0 0.78125)"/>
       <use xlink:href="#DejaVuSans-2e" transform="translate(63.623047 0.78125)"/>
       <use xlink:href="#DejaVuSans-30" transform="translate(95.410156 0.78125)"/>
       <use xlink:href="#DejaVuSans-30" transform="translate(159.033203 0.78125)"/>
      </g>
     </g>
    </g>
    <g id="ytick_2">
     <g id="line2d_14">
      <g>
       <use xlink:href="#m629af24e73" x="56.337116" y="191.490567" style="fill: #ffffff; stroke: #ffffff; stroke-width: 0.75"/>
      </g>
     </g>
     <g id="line2d_15">
      <g>
       <use xlink:href="#m7147d22c9d" x="419.26224" y="191.490567" style="fill: #ffffff; stroke: #ffffff; stroke-width: 0.75"/>
      </g>
     </g>
     <g id="text_7">
      <!-- $0.25$ -->
      <g style="fill: #ffffff" transform="translate(3.787116 200.038809) scale(0.225 -0.225)">
       <defs>
        <path id="DejaVuSans-35" d="M 691 4666 
L 3169 4666 
L 3169 4134 
L 1269 4134 
L 1269 2991 
Q 1406 3038 1543 3061 
Q 1681 3084 1819 3084 
Q 2600 3084 3056 2656 
Q 3513 2228 3513 1497 
Q 3513 744 3044 326 
Q 2575 -91 1722 -91 
Q 1428 -91 1123 -41 
Q 819 9 494 109 
L 494 744 
Q 775 591 1075 516 
Q 1375 441 1709 441 
Q 2250 441 2565 725 
Q 2881 1009 2881 1497 
Q 2881 1984 2565 2268 
Q 2250 2553 1709 2553 
Q 1456 2553 1204 2497 
Q 953 2441 691 2322 
L 691 4666 
z
" transform="scale(0.015625)"/>
       </defs>
       <use xlink:href="#DejaVuSans-30" transform="translate(0 0.78125)"/>
       <use xlink:href="#DejaVuSans-2e" transform="translate(63.623047 0.78125)"/>
       <use xlink:href="#DejaVuSans-32" transform="translate(89.910156 0.78125)"/>
       <use xlink:href="#DejaVuSans-35" transform="translate(153.533203 0.78125)"/>
      </g>
     </g>
    </g>
    <g id="ytick_3">
     <g id="line2d_16">
      <g>
       <use xlink:href="#m629af24e73" x="56.337116" y="131.77925" style="fill: #ffffff; stroke: #ffffff; stroke-width: 0.75"/>
      </g>
     </g>
     <g id="line2d_17">
      <g>
       <use xlink:href="#m7147d22c9d" x="419.26224" y="131.77925" style="fill: #ffffff; stroke: #ffffff; stroke-width: 0.75"/>
      </g>
     </g>
     <g id="text_8">
      <!-- $0.50$ -->
      <g style="fill: #ffffff" transform="translate(2.662116 140.327492) scale(0.225 -0.225)">
       <use xlink:href="#DejaVuSans-30" transform="translate(0 0.78125)"/>
       <use xlink:href="#DejaVuSans-2e" transform="translate(63.623047 0.78125)"/>
       <use xlink:href="#DejaVuSans-35" transform="translate(95.410156 0.78125)"/>
       <use xlink:href="#DejaVuSans-30" transform="translate(159.033203 0.78125)"/>
      </g>
     </g>
    </g>
    <g id="ytick_4">
     <g id="line2d_18">
      <g>
       <use xlink:href="#m629af24e73" x="56.337116" y="72.067933" style="fill: #ffffff; stroke: #ffffff; stroke-width: 0.75"/>
      </g>
     </g>
     <g id="line2d_19">
      <g>
       <use xlink:href="#m7147d22c9d" x="419.26224" y="72.067933" style="fill: #ffffff; stroke: #ffffff; stroke-width: 0.75"/>
      </g>
     </g>
     <g id="text_9">
      <!-- $0.75$ -->
      <g style="fill: #ffffff" transform="translate(4.462116 80.616175) scale(0.225 -0.225)">
       <defs>
        <path id="DejaVuSans-37" d="M 525 4666 
L 3525 4666 
L 3525 4397 
L 1831 0 
L 1172 0 
L 2766 4134 
L 525 4134 
L 525 4666 
z
" transform="scale(0.015625)"/>
       </defs>
       <use xlink:href="#DejaVuSans-30" transform="translate(0 0.78125)"/>
       <use xlink:href="#DejaVuSans-2e" transform="translate(63.623047 0.78125)"/>
       <use xlink:href="#DejaVuSans-37" transform="translate(87.660156 0.78125)"/>
       <use xlink:href="#DejaVuSans-35" transform="translate(151.283203 0.78125)"/>
      </g>
     </g>
    </g>
    <g id="ytick_5">
     <g id="line2d_20">
      <g>
       <use xlink:href="#m629af24e73" x="56.337116" y="12.356616" style="fill: #ffffff; stroke: #ffffff; stroke-width: 0.75"/>
      </g>
     </g>
     <g id="line2d_21">
      <g>
       <use xlink:href="#m7147d22c9d" x="419.26224" y="12.356616" style="fill: #ffffff; stroke: #ffffff; stroke-width: 0.75"/>
      </g>
     </g>
     <g id="text_10">
      <!-- $1.00$ -->
      <g style="fill: #ffffff" transform="translate(2.662116 20.904858) scale(0.225 -0.225)">
       <use xlink:href="#DejaVuSans-31" transform="translate(0 0.78125)"/>
       <use xlink:href="#DejaVuSans-2e" transform="translate(63.623047 0.78125)"/>
       <use xlink:href="#DejaVuSans-30" transform="translate(95.410156 0.78125)"/>
       <use xlink:href="#DejaVuSans-30" transform="translate(159.033203 0.78125)"/>
      </g>
     </g>
    </g>
   </g>
   <g id="patch_3">
    <path d="M 56.337116 258.121354 
L 56.337116 5.198419 
" style="fill: none; stroke: #ffffff; stroke-width: 1.5; stroke-linejoin: miter; stroke-linecap: square"/>
   </g>
   <g id="patch_4">
    <path d="M 419.26224 258.121354 
L 419.26224 5.198419 
" style="fill: none; stroke: #ffffff; stroke-width: 1.5; stroke-linejoin: miter; stroke-linecap: square"/>
   </g>
   <g id="patch_5">
    <path d="M 56.337116 258.121354 
L 419.26224 258.121354 
" style="fill: none; stroke: #ffffff; stroke-width: 1.5; stroke-linejoin: miter; stroke-linecap: square"/>
   </g>
   <g id="patch_6">
    <path d="M 56.337116 5.198419 
L 419.26224 5.198419 
" style="fill: none; stroke: #ffffff; stroke-width: 1.5; stroke-linejoin: miter; stroke-linecap: square"/>
   </g>
  </g>
 </g>
 <defs>
  <clipPath id="p3cba52af39">
   <rect x="56.337116" y="5.198419" width="362.925124" height="252.922935"/>
  </clipPath>
 </defs>
</svg>
